<?xml version="1.0" encoding="UTF-8"?><svg id="Layer_1" xmlns="http://www.w3.org/2000/svg" viewBox="0 0 426.29 334.08"><defs><style>.cls-1{fill:none;stroke-linecap:round;}.cls-1,.cls-2{stroke:#000;stroke-miterlimit:10;stroke-width:2px;}</style></defs><path class="cls-1" d="M72.73,52.5c-.77.03-2.4,0-4-1-1.7-1.06-3.48-3.25-3-5,.45-1.66,2.95-2.96,3-3,.51-.19,2.19-.73,4,0,1.73.7,2.53,2.14,3,3,.22.41,1.19,2.17,1,4-.23,2.2-2.48,3.09-7,6-5.46,3.52-4.39,3.49-6.5,4.5-2.25,1.08-3.79,1.27-14,2-9.13.66-9.43.61-11,1-3.15.77-4.38,1.54-10,3-4.46,1.16-5.72,1.2-7,1-.83-.13-4.62-.81-7-4-1.33-1.78-1.57-3.88-2-8-.54-5.23-.81-7.84,0-11,1.03-3.99,3.07-6.56,5-9,1.98-2.49,4.68-4.69,10-9,6.36-5.14,9.55-7.72,10-8,4.27-2.64,8.24-3.8,16-6,4.3-1.22,10.37-2.75,18-4,6.8-1.11,11.87-1.52,18-2,10.25-.8,15.38-1.2,21-1,6.41.23,5.41.92,30,5,0,0,6.16,1.02,17,2,5.1.46,8.15.61,12,0,1.64-.26,3.73-.7,10-3,9.37-3.43,9.8-4.3,15-6,3.9-1.27,9.11-2.97,16-3,7.3-.03,12.72,1.84,16,3,7.91,2.8,18.89,8.69,18,12-.4,1.51-2.78,1.12-13,4-2.35.66-.19.11-12,4-3.89,1.28-6.95,2.27-10,5-3.11,2.78-3.04,4.55-3,5,.18,1.98,2.09,3.34,3,4,2.11,1.51,4.24,1.86,5,2,2.37.44,5.58,2.29,12,6,5.77,3.33,9.99,6.45,12,8,4.16,3.19,6.03,5.14,15,14,13.67,13.51,13.8,13.42,16,16,4.73,5.54,7.7,10.11,12,17,12.53,20.05,18.8,30.08,26,44,6.65,12.86,10.7,20.7,15,32,10.16,26.73,13.93,52.44,12,53-.93.27-2.48-5.53-9-18-2.56-4.9-4.46-8.09-17-28-9.45-15-14.21-22.54-16-25-6.27-8.6-11.51-14.48-20-24-8.41-9.44-12.62-14.16-19-20-7.81-7.15-15.62-13.09-23-18-10.42-6.93-18.14-12.06-30-16-10.73-3.56-19.18-4.27-28-5-18.7-1.56-19.84.44-20,1-.16.56.24.85,3,5,3.01,4.52,2.92,4.78,4,6,1.79,2.03,3.15,2.63,7,5,7.09,4.37,5.75,4.38,9,6,2.74,1.37,3.25,1.14,14,5,3.11,1.12,5.44,1.99,6,4,.38,1.39-.17,2.98-1,4-1.18,1.47-2.95,1.81-4,2-7.93,1.4-12,1-12,1-7.27-.71-12.86-1.64-15-2-14.44-2.4-14.54-2.3-17-3-6.72-1.91-11.04-3.2-15-7-.3-.29-2.2-2.52-6-7-3.79-4.47-4.43-5.27-6-7-3.59-3.97-5.39-5.96-7-7-2.85-1.84-4.72-1.79-12-3-4.52-.75-8.01-1.5-15-3-8.25-1.77-12.42-2.68-15-4-2.66-1.36-4.04-2.52-7-3-1.41-.23-3.9-.43-9,1-4.03,1.13-5.27,2.04-10,4-2.26.94-7.93,3.2-15,5-2.72.69-5.14,1.13-10,2-13.97,2.51-15.35,1.85-16,1-1.45-1.91.03-5.8,2-8,2.79-3.12,6.9-3.26,7-3,.11.31-5.57,1.23-9,6-.65.91-2.96,4.12-2,7,.98,2.94,4.93,4.14,9,5,10.38,2.19,18.8,1.48,30,1,11.02-.47,14.4-.65,20,0,7.86.91,12.28,2.55,16,5,2.5,1.64,6.52,4.29,8,9,.82,2.59.02,3.13,0,10-.01,4.43-.02,8.1,1,12,.63,2.42,1.68,4.99,5,10,5.36,8.1,10.45,15.78,20,21,1.31.72,9.98,5.3,12,3,1.99-2.27-3.03-10.69-5-14-1.84-3.09-2.81-4.01-4-7-1.73-4.33-1.97-8.04-2-9-.18-5.36,1.43-5.39,1-10-.44-4.72-2.53-9.06-3-10-1.34-2.69-2.31-3.65-2-4,.84-.95,8.56,5.29,18,11,4.91,2.97,9.94,5.31,20,10,11.3,5.26,15.07,6.63,32,14,8.68,3.78,16.63,7.23,27,12,10.87,4.99,18.72,8.62,29,14,9.56,5,15.32,8.02,23,13,11.28,7.31,18.98,13.85,25,19,8.19,7.01,12.46,11.67,21,21,5.66,6.18,9.04,10.35,9,16-.04,5.35-3.13,9.76-4,11-3.03,4.32-5.47,4.56-10,9-3.94,3.86-6.02,7.52-8,11-3.29,5.78-2.16,6.06-8,20-1.22,2.91-2.08,4.84-3,8-.76,2.6-1.82,6.35-2,11-.26,6.89,1.75,7.24,1,12-1.02,6.45-5.07,8.09-4,11,1.42,3.84,9.72,4.3,14,4,6.53-.46,11.23-3.21,16-6,3.66-2.14,6.77-4.76,13-10,7.54-6.34,8.52-8.07,9-9,2.44-4.77,1.03-7.31,4-11,2.31-2.87,5.28-3.98,8-5,7.1-2.65,13.4-1.37,15-1,1.26.29,2.73.73,12,6,9.98,5.67,9.99,6.14,14,8,6.96,3.23,12.72,4.54,15,5,6.3,1.28,10.74,2.19,16,1,8.79-1.98,16.81-7.99,16-11-.35-1.29-2.04-.98-5-3-3.55-2.42-4.47-5.16-7-9-2.71-4.1-2.97-2.96-9-10-5.93-6.92-5.56-7.89-11-14-1.54-1.73-4.66-5.12-9-9-5.93-5.3-11.02-8.71-13-10-4.9-3.19-8.98-5.85-15-8-5.64-2.01-10.59-2.73-14-3"/><circle class="cls-2" cx="69.23" cy="47" r="3"/></svg>